HIERARCHY
ROOT Hips
{
	OFFSET 0.000000 100.481300 0.000000
	CHANNELS 6 Xposition Yposition Zposition Xrotation Yrotation Zrotation
	JOINT Spine
	{
		OFFSET -0.279200 12.230698 -2.892100
		CHANNELS 3 Xrotation Yrotation Zrotation
		JOINT Spine1
		{
			OFFSET -0.325700 14.269203 -3.374200
			CHANNELS 3 Xrotation Yrotation Zrotation
			JOINT Spine2
			{
				OFFSET -0.372300 16.307602 -0.352600
				CHANNELS 3 Xrotation Yrotation Zrotation
				JOINT Neck
				{
					OFFSET -0.418800 17.814194 8.416900
					CHANNELS 3 Xrotation Yrotation Zrotation
					JOINT Head
					{
						OFFSET 0.000000 7.031097 3.806800
						CHANNELS 3 Xrotation Yrotation Zrotation
						JOINT HeadTop_End
						{
							OFFSET 0.000000 24.646606 12.978600
							CHANNELS 3 Xrotation Yrotation Zrotation
							End Site
							{
								OFFSET 0.000000 27.854965 0.000000
							}
						}
					}
				}
				JOINT LeftShoulder
				{
					OFFSET 16.952999 14.495407 -7.737500
					CHANNELS 3 Xrotation Yrotation Zrotation
					JOINT LeftArm
					{
						OFFSET 9.308998 -2.777710 0.208600
						CHANNELS 3 Xrotation Yrotation Zrotation
						JOINT LeftForeArm
						{
							OFFSET 29.972298 0.000000 0.000000
							CHANNELS 3 Xrotation Yrotation Zrotation
							JOINT LeftHand
							{
								OFFSET 26.026505 0.000000 0.000000
								CHANNELS 3 Xrotation Yrotation Zrotation
								JOINT LeftHandThumb1
								{
									OFFSET 12.240501 -7.147949 9.207150
									CHANNELS 3 Xrotation Yrotation Zrotation
									JOINT LeftHandThumb2
									{
										OFFSET 4.138618 -2.389435 2.389433
										CHANNELS 3 Xrotation Yrotation Zrotation
										JOINT LeftHandThumb3
										{
											OFFSET 2.726913 -1.574387 1.574386
											CHANNELS 3 Xrotation Yrotation Zrotation
											JOINT LeftHandThumb4
											{
												OFFSET 3.941010 -2.275345 2.275342
												CHANNELS 3 Xrotation Yrotation Zrotation
												End Site
												{
													OFFSET -0.005798 5.087799 0.009903
												}
											}
										}
									}
								}
								JOINT LeftHandIndex1
								{
									OFFSET 24.424698 -1.985611 5.953459
									CHANNELS 3 Xrotation Yrotation Zrotation
									JOINT LeftHandIndex2
									{
										OFFSET 6.426697 0.000000 0.000000
										CHANNELS 3 Xrotation Yrotation Zrotation
										JOINT LeftHandIndex3
										{
											OFFSET 5.337898 0.000000 0.000000
											CHANNELS 3 Xrotation Yrotation Zrotation
											JOINT LeftHandIndex4
											{
												OFFSET 4.409401 0.000000 0.000000
												CHANNELS 3 Xrotation Yrotation Zrotation
												End Site
												{
													OFFSET 0.000000 4.409363 0.014373
												}
											}
										}
									}
								}
								JOINT LeftHandMiddle1
								{
									OFFSET 23.810104 0.000000 0.000000
									CHANNELS 3 Xrotation Yrotation Zrotation
									JOINT LeftHandMiddle2
									{
										OFFSET 7.176498 0.000000 0.000000
										CHANNELS 3 Xrotation Yrotation Zrotation
										JOINT LeftHandMiddle3
										{
											OFFSET 6.774902 0.000000 0.000000
											CHANNELS 3 Xrotation Yrotation Zrotation
											JOINT LeftHandMiddle4
											{
												OFFSET 5.403328 0.000000 0.000000
												CHANNELS 3 Xrotation Yrotation Zrotation
												End Site
												{
													OFFSET -0.027702 5.403244 0.017414
												}
											}
										}
									}
								}
								JOINT LeftHandRing1
								{
									OFFSET 22.908401 -0.839279 -6.020567
									CHANNELS 3 Xrotation Yrotation Zrotation
									JOINT LeftHandRing2
									{
										OFFSET 6.337502 0.000000 0.000000
										CHANNELS 3 Xrotation Yrotation Zrotation
										JOINT LeftHandRing3
										{
											OFFSET 5.779297 0.000000 0.000000
											CHANNELS 3 Xrotation Yrotation Zrotation
											JOINT LeftHandRing4
											{
												OFFSET 4.965698 0.000000 0.000000
												CHANNELS 3 Xrotation Yrotation Zrotation
												End Site
												{
													OFFSET 0.000000 4.965668 0.016186
												}
											}
										}
									}
								}
								JOINT LeftHandPinky1
								{
									OFFSET 20.037003 -1.530319 -10.950146
									CHANNELS 3 Xrotation Yrotation Zrotation
									JOINT LeftHandPinky2
									{
										OFFSET 5.254700 0.000000 0.000000
										CHANNELS 3 Xrotation Yrotation Zrotation
										JOINT LeftHandPinky3
										{
											OFFSET 4.810204 0.000000 0.000000
											CHANNELS 3 Xrotation Yrotation Zrotation
											JOINT LeftHandPinky4
											{
												OFFSET 3.647202 0.000000 0.000000
												CHANNELS 3 Xrotation Yrotation Zrotation
												End Site
												{
													OFFSET 0.000000 3.647186 0.011889
												}
											}
										}
									}
								}
							}
						}
					}
				}
				JOINT RightShoulder
				{
					OFFSET -15.141001 14.495407 -7.737500
					CHANNELS 3 Xrotation Yrotation Zrotation
					JOINT RightArm
					{
						OFFSET -9.308998 -2.777710 0.208500
						CHANNELS 3 Xrotation Yrotation Zrotation
						JOINT RightForeArm
						{
							OFFSET -29.972300 0.000000 0.000000
							CHANNELS 3 Xrotation Yrotation Zrotation
							JOINT RightHand
							{
								OFFSET -26.026505 0.000000 0.000000
								CHANNELS 3 Xrotation Yrotation Zrotation
								JOINT RightHandThumb1
								{
									OFFSET -12.240601 -7.148026 9.207092
									CHANNELS 3 Xrotation Yrotation Zrotation
									JOINT RightHandThumb2
									{
										OFFSET -4.138618 -2.389435 2.389433
										CHANNELS 3 Xrotation Yrotation Zrotation
										JOINT RightHandThumb3
										{
											OFFSET -2.726974 -1.574417 1.574421
											CHANNELS 3 Xrotation Yrotation Zrotation
											JOINT RightHandThumb4
											{
												OFFSET -3.941010 -2.275345 2.275343
												CHANNELS 3 Xrotation Yrotation Zrotation
												End Site
												{
													OFFSET 0.005814 5.087799 0.009927
												}
											}
										}
									}
								}
								JOINT RightHandIndex1
								{
									OFFSET -24.424698 -1.985657 5.953444
									CHANNELS 3 Xrotation Yrotation Zrotation
									JOINT RightHandIndex2
									{
										OFFSET -6.426697 0.000000 0.000000
										CHANNELS 3 Xrotation Yrotation Zrotation
										JOINT RightHandIndex3
										{
											OFFSET -5.337898 0.000000 0.000000
											CHANNELS 3 Xrotation Yrotation Zrotation
											JOINT RightHandIndex4
											{
												OFFSET -4.409401 0.000000 0.000000
												CHANNELS 3 Xrotation Yrotation Zrotation
												End Site
												{
													OFFSET 0.000000 4.409363 0.014408
												}
											}
										}
									}
								}
								JOINT RightHandMiddle1
								{
									OFFSET -23.810097 0.000000 0.000000
									CHANNELS 3 Xrotation Yrotation Zrotation
									JOINT RightHandMiddle2
									{
										OFFSET -7.176498 0.000000 0.000000
										CHANNELS 3 Xrotation Yrotation Zrotation
										JOINT RightHandMiddle3
										{
											OFFSET -6.774902 0.000000 0.000000
											CHANNELS 3 Xrotation Yrotation Zrotation
											JOINT RightHandMiddle4
											{
												OFFSET -5.403328 0.000000 0.000000
												CHANNELS 3 Xrotation Yrotation Zrotation
												End Site
												{
													OFFSET 0.027702 5.403244 0.017457
												}
											}
										}
									}
								}
								JOINT RightHandRing1
								{
									OFFSET -22.908302 -0.839325 -6.020576
									CHANNELS 3 Xrotation Yrotation Zrotation
									JOINT RightHandRing2
									{
										OFFSET -6.337502 0.000000 0.000000
										CHANNELS 3 Xrotation Yrotation Zrotation
										JOINT RightHandRing3
										{
											OFFSET -5.779297 0.000000 0.000000
											CHANNELS 3 Xrotation Yrotation Zrotation
											JOINT RightHandRing4
											{
												OFFSET -4.965698 0.000000 0.000000
												CHANNELS 3 Xrotation Yrotation Zrotation
												End Site
												{
													OFFSET 0.000000 4.965668 0.016226
												}
											}
										}
									}
								}
								JOINT RightHandPinky1
								{
									OFFSET -20.037003 -1.530334 -10.950259
									CHANNELS 3 Xrotation Yrotation Zrotation
									JOINT RightHandPinky2
									{
										OFFSET -5.254700 0.000000 0.000000
										CHANNELS 3 Xrotation Yrotation Zrotation
										JOINT RightHandPinky3
										{
											OFFSET -4.810204 0.000000 0.000000
											CHANNELS 3 Xrotation Yrotation Zrotation
											JOINT RightHandPinky4
											{
												OFFSET -3.647202 0.000000 0.000000
												CHANNELS 3 Xrotation Yrotation Zrotation
												End Site
												{
													OFFSET 0.000000 3.647186 0.011917
												}
											}
										}
									}
								}
							}
						}
					}
				}
			}
		}
	}
	JOINT LeftUpLeg
	{
		OFFSET 15.427100 -6.655098 0.678600
		CHANNELS 3 Xrotation Yrotation Zrotation
		JOINT LeftLeg
		{
			OFFSET 4.081073 -39.591068 13.024000
			CHANNELS 3 Xrotation Yrotation Zrotation
			JOINT LeftFoot
			{
				OFFSET -4.081074 -37.707932 -15.979700
				CHANNELS 3 Xrotation Yrotation Zrotation
				JOINT LeftToeBase
				{
					OFFSET 5.346399 -15.068900 20.645000
					CHANNELS 3 Xrotation Yrotation Zrotation
					JOINT LeftToe_End
					{
						OFFSET 2.754700 0.931300 11.300900
						CHANNELS 3 Xrotation Yrotation Zrotation
						End Site
						{
							OFFSET 0.000000 11.669021 0.000000
						}
					}
				}
			}
		}
	}
	JOINT RightUpLeg
	{
		OFFSET -15.569500 -6.655098 0.678600
		CHANNELS 3 Xrotation Yrotation Zrotation
		JOINT RightLeg
		{
			OFFSET -4.081825 -39.591045 13.023800
			CHANNELS 3 Xrotation Yrotation Zrotation
			JOINT RightFoot
			{
				OFFSET 4.081824 -37.707954 -15.979600
				CHANNELS 3 Xrotation Yrotation Zrotation
				JOINT RightToeBase
				{
					OFFSET -5.346400 -15.068900 20.645000
					CHANNELS 3 Xrotation Yrotation Zrotation
					JOINT RightToe_End
					{
						OFFSET -2.754700 0.931300 11.300900
						CHANNELS 3 Xrotation Yrotation Zrotation
						End Site
						{
							OFFSET 0.000000 11.669021 0.000000
						}
					}
				}
			}
		}
	}
}
MOTION
Frames: 4
Frame Time: 0.033333
-2.860286 67.303185 4.836871 -26.809338 -106.295427 -28.485292 37.513045 -8.089990 12.683803 0.414800 -2.362308 -7.709562 0.107115 -3.355763 -7.348583 3.932346 13.061876 3.407150 -15.876744 71.958884 -1.914025 -0.000001 0.000000 0.000000 -4.890005 -12.069225 -11.461688 67.211233 -104.556870 63.308142 -0.000021 -57.121296 -0.000008 -24.949054 -1.946216 11.620534 27.368981 -31.211178 -2.623195 12.878146 61.108418 3.451070 -4.565724 23.207134 18.818267 -0.000001 0.000001 -0.000001 3.409534 7.638097 -64.576290 3.045595 5.136675 -61.306699 0.816321 2.984808 -30.585020 -0.000000 -0.000000 0.000000 3.409535 7.638100 -64.576283 3.045597 5.136677 -61.306712 0.816313 2.984809 -30.585024 -0.000000 0.000002 0.000004 3.409534 7.638097 -64.576290 3.045595 5.136678 -61.306706 0.816313 2.984807 -30.585020 0.000001 -0.000002 0.000001 3.409528 7.638087 -64.576290 3.045600 5.136681 -61.306699 0.816323 2.984809 -30.585017 0.000002 0.000000 -0.000002 1.568983 8.117226 -0.218893 -35.060324 0.045059 12.100361 -0.000002 118.052580 -0.000004 -58.824219 13.269469 -13.517815 14.999049 22.306112 9.028881 11.182936 -54.589949 -4.064262 -3.441209 -25.198788 -18.719380 -0.000002 0.000005 0.000002 2.897203 -6.567303 67.103351 2.658710 -4.207437 64.564337 0.718981 -2.487909 32.233322 -0.000003 0.000000 -0.000001 2.897203 -6.567302 67.103351 2.658715 -4.207438 64.564337 0.718979 -2.487914 32.233329 0.000001 -0.000000 0.000001 2.897203 -6.567299 67.103344 2.658712 -4.207443 64.564337 0.718983 -2.487911 32.233319 0.000001 0.000000 -0.000001 2.897203 -6.567303 67.103351 2.658718 -4.207444 64.564337 0.718985 -2.487906 32.233322 -0.000000 0.000002 0.000000 -45.222157 -10.656686 39.093988 64.548716 -13.132823 8.089665 -0.771795 -7.569745 -35.573176 -25.425248 0.126995 -0.772461 0.000000 -0.000000 0.000000 -60.019953 2.850961 -0.672120 68.803030 11.227512 0.329451 -16.781257 -1.111845 1.756310 -0.000150 -0.000007 0.000006 0.000000 0.000000 -0.000000 
-2.719913 67.001572 4.687928 -26.517171 -106.137445 -28.214656 37.781157 -8.207645 12.816805 0.416152 -2.381239 -7.826568 0.100993 -3.395411 -7.459910 3.876607 13.055141 3.423343 -15.911455 71.904796 -1.827737 0.000000 0.000000 -0.000001 -4.899500 -12.023517 -11.489083 68.362045 -104.761401 64.612251 -0.000007 -58.283869 -0.000010 -22.938690 -0.637159 12.678354 27.368978 -31.211178 -2.623198 12.878152 61.108418 3.451063 -4.565720 23.207134 18.818266 0.000002 0.000001 0.000001 3.409534 7.638098 -64.576290 3.045596 5.136673 -61.306712 0.816321 2.984806 -30.585017 -0.000000 0.000002 -0.000001 3.409537 7.638101 -64.576290 3.045596 5.136677 -61.306706 0.816309 2.984813 -30.585024 0.000000 0.000001 -0.000002 3.409534 7.638098 -64.576290 3.045598 5.136677 -61.306706 0.816313 2.984807 -30.585020 0.000001 0.000001 -0.000003 3.409527 7.638089 -64.576290 3.045601 5.136683 -61.306706 0.816320 2.984809 -30.585024 0.000000 0.000002 0.000001 1.633666 8.248930 -0.784931 -35.649605 -0.916567 13.242647 0.000001 118.259043 -0.000005 -58.580142 14.651645 -11.935875 14.999048 22.306115 9.028879 11.182941 -54.589945 -4.064267 -3.441211 -25.198794 -18.719380 -0.000000 -0.000001 -0.000002 2.897201 -6.567303 67.103344 2.658712 -4.207437 64.564330 0.718984 -2.487912 32.233322 -0.000001 0.000000 -0.000001 2.897203 -6.567302 67.103351 2.658715 -4.207440 64.564330 0.718977 -2.487913 32.233326 -0.000003 -0.000001 -0.000001 2.897201 -6.567299 67.103337 2.658709 -4.207442 64.564337 0.718985 -2.487909 32.233326 -0.000001 0.000001 -0.000002 2.897203 -6.567303 67.103351 2.658719 -4.207446 64.564330 0.718983 -2.487906 32.233322 0.000002 0.000000 0.000001 -45.318797 -11.031842 39.254125 64.817949 -13.174251 8.074847 -0.732123 -7.673387 -35.616913 -25.181159 0.150044 -0.926371 -0.000000 0.000000 0.000000 -60.270580 2.865108 -0.616638 69.274736 11.088174 0.426917 -16.854689 -1.109459 1.671955 -0.000150 -0.000007 0.000006 -0.000000 0.000000 -0.000000 
-2.587368 66.660583 4.537447 -25.998164 -105.983806 -27.748241 38.049369 -8.341504 12.924965 0.426666 -2.401391 -7.947413 0.104139 -3.436658 -7.575195 3.852830 13.061822 3.425687 -16.073921 71.889906 -1.543335 0.000000 0.000000 -0.000000 -4.923983 -11.949267 -11.570059 69.635862 -104.876380 65.903607 -0.000002 -59.624737 -0.000016 -20.609314 0.918555 14.072169 27.368974 -31.211168 -2.623198 12.878155 61.108418 3.451078 -4.565720 23.207132 18.818267 -0.000000 -0.000001 0.000000 3.409532 7.638097 -64.576297 3.045596 5.136674 -61.306706 0.816321 2.984807 -30.585020 0.000000 -0.000001 -0.000003 3.409535 7.638100 -64.576283 3.045597 5.136676 -61.306712 0.816310 2.984806 -30.585024 0.000001 -0.000002 0.000003 3.409533 7.638097 -64.576297 3.045598 5.136676 -61.306706 0.816313 2.984806 -30.585020 -0.000000 0.000000 0.000000 3.409528 7.638087 -64.576297 3.045601 5.136682 -61.306706 0.816320 2.984809 -30.585020 -0.000000 0.000001 0.000000 1.704335 8.404019 -1.351237 -36.187155 -2.000578 14.629270 0.000004 118.386139 -0.000001 -58.362088 16.317988 -9.762839 14.999049 22.306115 9.028879 11.182952 -54.589945 -4.064267 -3.441207 -25.198784 -18.719380 0.000003 0.000000 -0.000003 2.897204 -6.567303 67.103344 2.658713 -4.207436 64.564330 0.718984 -2.487909 32.233322 0.000000 0.000001 0.000000 2.897204 -6.567302 67.103351 2.658714 -4.207438 64.564337 0.718979 -2.487910 32.233326 -0.000001 -0.000000 -0.000000 2.897202 -6.567299 67.103337 2.658713 -4.207443 64.564337 0.718981 -2.487910 32.233322 0.000003 -0.000001 -0.000001 2.897204 -6.567303 67.103351 2.658718 -4.207443 64.564337 0.718980 -2.487904 32.233322 0.000001 0.000001 -0.000001 -45.364665 -11.449958 39.481635 65.150982 -13.228286 8.055171 -0.682268 -7.776497 -35.670854 -24.945924 0.175932 -1.102188 0.000000 0.000000 -0.000000 -60.500238 2.853296 -0.546819 69.795224 10.973449 0.545992 -16.945874 -1.102651 1.555564 -0.000150 -0.000007 0.000006 0.000000 0.000000 0.000000 
-2.467703 66.271019 4.392548 -25.218974 -105.839443 -27.049050 38.325930 -8.487636 13.016805 0.437443 -2.421555 -8.074002 0.107507 -3.478663 -7.696060 3.874462 13.079942 3.418455 -16.304090 71.921885 -1.135046 -0.000000 0.000001 -0.000001 -4.964327 -11.846517 -11.709035 70.936869 -104.916671 67.070238 -0.000015 -61.034249 -0.000023 -17.979076 2.723328 15.651616 27.368971 -31.211171 -2.623196 12.878159 61.108412 3.451077 -4.565717 23.207135 18.818266 0.000002 -0.000000 0.000000 3.409533 7.638096 -64.576283 3.045598 5.136675 -61.306706 0.816322 2.984803 -30.585024 -0.000001 -0.000000 -0.000003 3.409534 7.638098 -64.576283 3.045596 5.136678 -61.306712 0.816311 2.984813 -30.585024 0.000001 -0.000002 -0.000003 3.409533 7.638096 -64.576290 3.045597 5.136677 -61.306706 0.816312 2.984805 -30.585020 0.000001 -0.000000 0.000004 3.409527 7.638088 -64.576290 3.045600 5.136682 -61.306699 0.816320 2.984805 -30.585017 -0.000000 -0.000000 0.000001 1.784765 8.600937 -1.932373 -36.608967 -3.212600 16.254414 0.000034 118.393311 -0.000034 -58.266629 18.301569 -7.044277 14.999044 22.306112 9.028880 11.182935 -54.589949 -4.064266 -3.441208 -25.198788 -18.719377 0.000000 0.000002 0.000001 2.897203 -6.567303 67.103351 2.658712 -4.207440 64.564330 0.718984 -2.487911 32.233329 0.000001 -0.000000 -0.000001 2.897203 -6.567302 67.103351 2.658715 -4.207440 64.564330 0.718978 -2.487915 32.233329 0.000002 0.000001 0.000000 2.897201 -6.567299 67.103337 2.658712 -4.207448 64.564337 0.718984 -2.487910 32.233319 0.000000 0.000000 -0.000001 2.897203 -6.567303 67.103351 2.658719 -4.207446 64.564330 0.718982 -2.487908 32.233319 0.000001 -0.000001 -0.000001 -45.364129 -11.910986 39.788400 65.558963 -13.299236 8.028513 -0.595877 -7.897418 -35.743548 -24.756289 0.203894 -1.294668 -0.000000 0.000000 0.000000 -60.712909 2.837619 -0.453742 70.381391 10.877945 0.676442 -17.064562 -1.096315 1.425661 -0.000150 -0.000006 0.000006 0.000000 0.000000 0.000000 
